<mxfile host="app.diagrams.net" agent="Mozilla/5.0 (Windows NT 10.0; Win64; x64) AppleWebKit/537.36 (KHTML, like Gecko) Chrome/128.0.0.0 Safari/537.36 OPR/114.0.0.0" version="24.8.4">
  <diagram name="Page-1" id="6J5TSM07ZjOwC6rWmdqe">
    <mxGraphModel grid="1" page="1" gridSize="10" guides="1" tooltips="1" connect="1" arrows="1" fold="1" pageScale="1" pageWidth="827" pageHeight="1169" math="0" shadow="0">
      <root>
        <mxCell id="0" />
        <mxCell id="1" parent="0" />
        <mxCell id="KAOMZDKXB5pzqVLM_G93-1" value="Client&lt;div&gt;&lt;br&gt;&lt;/div&gt;" style="shape=umlActor;verticalLabelPosition=bottom;verticalAlign=top;html=1;outlineConnect=0;" vertex="1" parent="1">
          <mxGeometry x="20" y="20" width="30" height="60" as="geometry" />
        </mxCell>
        <mxCell id="KAOMZDKXB5pzqVLM_G93-4" value="BDD" style="shape=cylinder3;whiteSpace=wrap;html=1;boundedLbl=1;backgroundOutline=1;size=15;" vertex="1" parent="1">
          <mxGeometry x="380" y="300" width="60" height="80" as="geometry" />
        </mxCell>
        <mxCell id="KAOMZDKXB5pzqVLM_G93-6" value="Vue" style="rounded=1;whiteSpace=wrap;html=1;" vertex="1" parent="1">
          <mxGeometry x="40" y="160" width="120" height="60" as="geometry" />
        </mxCell>
        <mxCell id="KAOMZDKXB5pzqVLM_G93-8" value="Controleur" style="rounded=1;whiteSpace=wrap;html=1;" vertex="1" parent="1">
          <mxGeometry x="240" y="30" width="120" height="60" as="geometry" />
        </mxCell>
        <mxCell id="KAOMZDKXB5pzqVLM_G93-11" value="" style="endArrow=classic;html=1;rounded=0;" edge="1" parent="1" source="KAOMZDKXB5pzqVLM_G93-1">
          <mxGeometry width="50" height="50" relative="1" as="geometry">
            <mxPoint x="180" y="50" as="sourcePoint" />
            <mxPoint x="240" y="50" as="targetPoint" />
          </mxGeometry>
        </mxCell>
        <mxCell id="KAOMZDKXB5pzqVLM_G93-13" value="Modèle&lt;div&gt;&lt;br&gt;&lt;/div&gt;" style="rounded=1;whiteSpace=wrap;html=1;" vertex="1" parent="1">
          <mxGeometry x="350" y="160" width="120" height="60" as="geometry" />
        </mxCell>
        <mxCell id="KAOMZDKXB5pzqVLM_G93-15" value="" style="endArrow=classic;html=1;rounded=0;entryX=0.407;entryY=1.008;entryDx=0;entryDy=0;entryPerimeter=0;" edge="1" parent="1" target="KAOMZDKXB5pzqVLM_G93-13">
          <mxGeometry width="50" height="50" relative="1" as="geometry">
            <mxPoint x="400" y="300" as="sourcePoint" />
            <mxPoint x="450" y="250" as="targetPoint" />
          </mxGeometry>
        </mxCell>
        <mxCell id="KAOMZDKXB5pzqVLM_G93-16" value="" style="endArrow=classic;html=1;rounded=0;entryX=0.855;entryY=0;entryDx=0;entryDy=4.35;entryPerimeter=0;" edge="1" parent="1" target="KAOMZDKXB5pzqVLM_G93-4">
          <mxGeometry width="50" height="50" relative="1" as="geometry">
            <mxPoint x="431" y="220" as="sourcePoint" />
            <mxPoint x="430" y="140" as="targetPoint" />
          </mxGeometry>
        </mxCell>
        <mxCell id="KAOMZDKXB5pzqVLM_G93-19" value="Clique sur la page &quot;Lire.php&quot;" style="text;html=1;align=center;verticalAlign=middle;resizable=0;points=[];autosize=1;strokeColor=none;fillColor=none;" vertex="1" parent="1">
          <mxGeometry x="50" y="20" width="180" height="30" as="geometry" />
        </mxCell>
        <mxCell id="KAOMZDKXB5pzqVLM_G93-23" value="" style="endArrow=classic;html=1;rounded=0;entryX=0.5;entryY=0;entryDx=0;entryDy=0;" edge="1" parent="1" target="KAOMZDKXB5pzqVLM_G93-13">
          <mxGeometry width="50" height="50" relative="1" as="geometry">
            <mxPoint x="364" y="50" as="sourcePoint" />
            <mxPoint x="414" as="targetPoint" />
          </mxGeometry>
        </mxCell>
        <mxCell id="KAOMZDKXB5pzqVLM_G93-24" value="" style="endArrow=classic;html=1;rounded=0;entryX=1;entryY=0.5;entryDx=0;entryDy=0;" edge="1" parent="1" target="KAOMZDKXB5pzqVLM_G93-6">
          <mxGeometry width="50" height="50" relative="1" as="geometry">
            <mxPoint x="350" y="190" as="sourcePoint" />
            <mxPoint x="400" y="140" as="targetPoint" />
          </mxGeometry>
        </mxCell>
        <mxCell id="KAOMZDKXB5pzqVLM_G93-25" value="" style="endArrow=classic;html=1;rounded=0;" edge="1" parent="1">
          <mxGeometry width="50" height="50" relative="1" as="geometry">
            <mxPoint x="100" y="160" as="sourcePoint" />
            <mxPoint x="60" y="100" as="targetPoint" />
          </mxGeometry>
        </mxCell>
        <mxCell id="KAOMZDKXB5pzqVLM_G93-26" value="Afficher la liste des films&lt;div&gt;sur la page &quot;Lire.php&quot;&lt;/div&gt;" style="text;html=1;align=center;verticalAlign=middle;resizable=0;points=[];autosize=1;strokeColor=none;fillColor=none;" vertex="1" parent="1">
          <mxGeometry x="90" y="115" width="150" height="40" as="geometry" />
        </mxCell>
        <mxCell id="KAOMZDKXB5pzqVLM_G93-27" value="Demande la liste des films au modèle&lt;div&gt;&lt;br&gt;&lt;/div&gt;" style="text;html=1;align=center;verticalAlign=middle;whiteSpace=wrap;rounded=0;" vertex="1" parent="1">
          <mxGeometry x="400" y="90" width="60" height="30" as="geometry" />
        </mxCell>
        <mxCell id="KAOMZDKXB5pzqVLM_G93-28" value="Requête SQL :&lt;div&gt;&quot;SELECT * FROM movie&quot;&lt;br&gt;&lt;/div&gt;" style="text;html=1;align=center;verticalAlign=middle;resizable=0;points=[];autosize=1;strokeColor=none;fillColor=none;" vertex="1" parent="1">
          <mxGeometry x="430" y="255" width="160" height="40" as="geometry" />
        </mxCell>
        <mxCell id="KAOMZDKXB5pzqVLM_G93-29" value="&lt;div&gt;Renvoie la liste de tous les films&lt;/div&gt;" style="text;html=1;align=center;verticalAlign=middle;resizable=0;points=[];autosize=1;strokeColor=none;fillColor=none;" vertex="1" parent="1">
          <mxGeometry x="210" y="260" width="190" height="30" as="geometry" />
        </mxCell>
        <mxCell id="KAOMZDKXB5pzqVLM_G93-30" value="&lt;div&gt;Passe les données à Vue&amp;nbsp;&lt;/div&gt;&lt;div&gt;pour convertir en affichage web&lt;/div&gt;" style="text;html=1;align=center;verticalAlign=middle;resizable=0;points=[];autosize=1;strokeColor=none;fillColor=none;" vertex="1" parent="1">
          <mxGeometry x="160" y="200" width="190" height="40" as="geometry" />
        </mxCell>
        <mxCell id="Zhuqgcr8zc5GpRnEbUMK-1" value="Client&lt;div&gt;&lt;br&gt;&lt;/div&gt;" style="shape=umlActor;verticalLabelPosition=bottom;verticalAlign=top;html=1;outlineConnect=0;" vertex="1" parent="1">
          <mxGeometry x="50" y="500" width="30" height="60" as="geometry" />
        </mxCell>
        <mxCell id="Zhuqgcr8zc5GpRnEbUMK-2" value="BDD" style="shape=cylinder3;whiteSpace=wrap;html=1;boundedLbl=1;backgroundOutline=1;size=15;" vertex="1" parent="1">
          <mxGeometry x="410" y="780" width="60" height="80" as="geometry" />
        </mxCell>
        <mxCell id="Zhuqgcr8zc5GpRnEbUMK-3" value="Vue" style="rounded=1;whiteSpace=wrap;html=1;" vertex="1" parent="1">
          <mxGeometry x="70" y="640" width="120" height="60" as="geometry" />
        </mxCell>
        <mxCell id="Zhuqgcr8zc5GpRnEbUMK-4" value="Controleur" style="rounded=1;whiteSpace=wrap;html=1;" vertex="1" parent="1">
          <mxGeometry x="270" y="510" width="120" height="60" as="geometry" />
        </mxCell>
        <mxCell id="Zhuqgcr8zc5GpRnEbUMK-5" value="" style="endArrow=classic;html=1;rounded=0;" edge="1" parent="1" source="Zhuqgcr8zc5GpRnEbUMK-1">
          <mxGeometry width="50" height="50" relative="1" as="geometry">
            <mxPoint x="210" y="530" as="sourcePoint" />
            <mxPoint x="270" y="530" as="targetPoint" />
          </mxGeometry>
        </mxCell>
        <mxCell id="Zhuqgcr8zc5GpRnEbUMK-6" value="Modèle&lt;div&gt;&lt;br&gt;&lt;/div&gt;" style="rounded=1;whiteSpace=wrap;html=1;" vertex="1" parent="1">
          <mxGeometry x="380" y="640" width="120" height="60" as="geometry" />
        </mxCell>
        <mxCell id="Zhuqgcr8zc5GpRnEbUMK-7" value="" style="endArrow=classic;html=1;rounded=0;entryX=0.407;entryY=1.008;entryDx=0;entryDy=0;entryPerimeter=0;" edge="1" parent="1" target="Zhuqgcr8zc5GpRnEbUMK-6">
          <mxGeometry width="50" height="50" relative="1" as="geometry">
            <mxPoint x="430" y="780" as="sourcePoint" />
            <mxPoint x="480" y="730" as="targetPoint" />
          </mxGeometry>
        </mxCell>
        <mxCell id="Zhuqgcr8zc5GpRnEbUMK-8" value="" style="endArrow=classic;html=1;rounded=0;entryX=0.855;entryY=0;entryDx=0;entryDy=4.35;entryPerimeter=0;" edge="1" parent="1" target="Zhuqgcr8zc5GpRnEbUMK-2">
          <mxGeometry width="50" height="50" relative="1" as="geometry">
            <mxPoint x="461" y="700" as="sourcePoint" />
            <mxPoint x="460" y="620" as="targetPoint" />
          </mxGeometry>
        </mxCell>
        <mxCell id="Zhuqgcr8zc5GpRnEbUMK-9" value="Clique sur la page &quot;Supprimer.php&quot;&lt;div&gt;Selectionner le film à supprimer&lt;/div&gt;" style="text;html=1;align=center;verticalAlign=middle;resizable=0;points=[];autosize=1;strokeColor=none;fillColor=none;" vertex="1" parent="1">
          <mxGeometry x="65" y="495" width="210" height="40" as="geometry" />
        </mxCell>
        <mxCell id="Zhuqgcr8zc5GpRnEbUMK-10" value="" style="endArrow=classic;html=1;rounded=0;entryX=0.5;entryY=0;entryDx=0;entryDy=0;" edge="1" parent="1" target="Zhuqgcr8zc5GpRnEbUMK-6">
          <mxGeometry width="50" height="50" relative="1" as="geometry">
            <mxPoint x="394" y="530" as="sourcePoint" />
            <mxPoint x="444" y="480" as="targetPoint" />
          </mxGeometry>
        </mxCell>
        <mxCell id="Zhuqgcr8zc5GpRnEbUMK-11" value="" style="endArrow=classic;html=1;rounded=0;entryX=1;entryY=0.5;entryDx=0;entryDy=0;" edge="1" parent="1" target="Zhuqgcr8zc5GpRnEbUMK-3">
          <mxGeometry width="50" height="50" relative="1" as="geometry">
            <mxPoint x="380" y="670" as="sourcePoint" />
            <mxPoint x="430" y="620" as="targetPoint" />
          </mxGeometry>
        </mxCell>
        <mxCell id="Zhuqgcr8zc5GpRnEbUMK-12" value="" style="endArrow=classic;html=1;rounded=0;" edge="1" parent="1">
          <mxGeometry width="50" height="50" relative="1" as="geometry">
            <mxPoint x="130" y="640" as="sourcePoint" />
            <mxPoint x="90" y="580" as="targetPoint" />
          </mxGeometry>
        </mxCell>
        <mxCell id="Zhuqgcr8zc5GpRnEbUMK-13" value="Affichage message de&amp;nbsp;&lt;div&gt;confirmation&lt;/div&gt;" style="text;html=1;align=center;verticalAlign=middle;resizable=0;points=[];autosize=1;strokeColor=none;fillColor=none;" vertex="1" parent="1">
          <mxGeometry x="120" y="595" width="150" height="40" as="geometry" />
        </mxCell>
        <mxCell id="Zhuqgcr8zc5GpRnEbUMK-14" value="&lt;div&gt;Envoyer la demande au controleur pour supprimer le film&lt;/div&gt;" style="text;html=1;align=center;verticalAlign=middle;whiteSpace=wrap;rounded=0;" vertex="1" parent="1">
          <mxGeometry x="430" y="570" width="90" height="30" as="geometry" />
        </mxCell>
        <mxCell id="Zhuqgcr8zc5GpRnEbUMK-15" value="Requête SQL :&lt;div&gt;&lt;div&gt;&quot;DELETE FROM movie&lt;/div&gt;&lt;div&gt;WHERE condition;&quot;&lt;/div&gt;&lt;/div&gt;&lt;div&gt;&lt;br&gt;&lt;/div&gt;" style="text;html=1;align=center;verticalAlign=middle;resizable=0;points=[];autosize=1;strokeColor=none;fillColor=none;" vertex="1" parent="1">
          <mxGeometry x="465" y="720" width="150" height="70" as="geometry" />
        </mxCell>
        <mxCell id="Zhuqgcr8zc5GpRnEbUMK-16" value="&lt;div&gt;Renvoie une réponse&lt;/div&gt;&lt;div&gt;de confirmation de suppression&lt;/div&gt;" style="text;html=1;align=center;verticalAlign=middle;resizable=0;points=[];autosize=1;strokeColor=none;fillColor=none;" vertex="1" parent="1">
          <mxGeometry x="240" y="735" width="190" height="40" as="geometry" />
        </mxCell>
        <mxCell id="Zhuqgcr8zc5GpRnEbUMK-17" value="&lt;div&gt;Passe les données à Vue&amp;nbsp;&lt;/div&gt;&lt;div&gt;pour convertir en affichage web&lt;/div&gt;" style="text;html=1;align=center;verticalAlign=middle;resizable=0;points=[];autosize=1;strokeColor=none;fillColor=none;" vertex="1" parent="1">
          <mxGeometry x="190" y="680" width="190" height="40" as="geometry" />
        </mxCell>
      </root>
    </mxGraphModel>
  </diagram>
</mxfile>
